# xmcd
#
# Track frame offsets: 
#        150
#        14990
#        33381
#        49294
#        75600
#        93985
#        113707
#        139486
#        165067
#        180356
#        211977
#        229748
#        247494
#
# Disc length: 3681 seconds
#
# Revision: 0
# Processed by: cddbd v1.4PL0 Copyright (c) Steve Scherf et al.
# Submitted via: ExactAudioCopy v0.90a11
#
DISCID=af0e5f0d
DTITLE=Steve Pryor - El Niño Chickendog
DYEAR=1900
DGENRE=
TTITLE0=Paper Thin
TTITLE1=Blow Wind Blow
TTITLE2=Before They Make Me Run
TTITLE3=Marielito
TTITLE4=Can't Be Satisfied
TTITLE5=Straight Time
TTITLE6=It Takes A Lot To Laugh, It Takes A Train To Cry
TTITLE7=Another Ghost Town
TTITLE8=Dust My Broom
TTITLE9=If I Don't Get Well No More
TTITLE10=Goin' Down
TTITLE11=Inside Out
TTITLE12=The Road Goes On Forever
EXTD=
EXTT0=
EXTT1=
EXTT2=
EXTT3=
EXTT4=
EXTT5=
EXTT6=
EXTT7=
EXTT8=
EXTT9=
EXTT10=
EXTT11=
EXTT12=
PLAYORDER=
